<svg width="515" height="103" viewBox="0 0 515 103" fill="none" xmlns="http://www.w3.org/2000/svg">
<g clip-path="url(#clip0_23_3)">
<path d="M62.5665 36.0278H68.6016V42.063H62.5665V36.0278Z" fill="#00D7B0"/>
<path d="M38.1663 43.0206C35.7724 45.9135 34.3984 49.5909 34.3984 53.4554C34.3984 62.482 41.7432 69.8248 50.7677 69.8248C54.6322 69.8248 58.3097 68.4528 61.2045 66.0588C49.1402 64.6848 39.5403 55.0829 38.1663 43.0206Z" fill="#00D7B0"/>
<path d="M87.9161 36.4161V15.0839H66.5839L51.5 0L36.4161 15.0839H15.0839V36.4161L0 51.5L15.0839 66.5839V87.9161H36.4161L51.5 103L66.5839 87.9161H87.9161V66.5839L103 51.5L87.9161 36.4161ZM70.2995 64.4293C66.3304 71.4804 58.8468 75.8599 50.7677 75.8599C38.4138 75.8599 28.3632 65.8094 28.3632 53.4554C28.3632 45.3783 32.7447 37.8927 39.7958 33.9256L44.7125 31.1575C43.8736 33.5052 43.4169 36.0339 43.4169 38.6713C43.4169 51.0091 53.4172 61.0094 65.755 61.0094C68.2455 61.0094 70.6395 60.603 72.8765 59.8506L70.2995 64.4293ZM74.6368 42.063H68.6016V48.0982H62.5665V42.063H56.5313V36.0279H62.5665V29.9927H68.6016V36.0279H74.6368V42.063Z" fill="#00D7B0"/>
</g>
<g clip-path="url(#clip1_23_3)">
<path fill-rule="evenodd" clip-rule="evenodd" d="M123.608 30.4867V78.1667H132.312V60.5667H141.4C144.643 60.5667 147.501 59.9694 149.976 58.7747C152.451 57.58 154.392 55.8734 155.8 53.6547C157.251 51.3934 157.976 48.684 157.976 45.5267C157.976 42.3267 157.272 39.6174 155.864 37.3987C154.456 35.1374 152.493 33.4307 149.976 32.2787C147.501 31.084 144.643 30.4867 141.4 30.4867H123.608ZM141.528 52.8867H132.312V38.1667H141.528C143.107 38.1667 144.472 38.4867 145.624 39.1267C146.776 39.724 147.672 40.5774 148.312 41.6867C148.952 42.7534 149.272 44.0334 149.272 45.5267C149.272 46.9774 148.952 48.2574 148.312 49.3667C147.672 50.476 146.776 51.3507 145.624 51.9907C144.472 52.588 143.107 52.8867 141.528 52.8867ZM345.994 38.1667V78.1667H354.761V38.1667H366.922V30.4867H333.641V38.1667H345.994ZM371.529 78.1667V43.3507H379.913V78.1667H371.529ZM371.529 39.4467V30.4867H379.913V39.4467H371.529ZM387.654 43.3507V78.1667H396.038V57.7507C396.038 56.2147 396.315 54.8921 396.87 53.7827C397.425 52.6734 398.214 51.8201 399.238 51.2227C400.262 50.5827 401.435 50.2627 402.758 50.2627C404.123 50.2627 405.297 50.5827 406.278 51.2227C407.302 51.8201 408.091 52.6734 408.646 53.7827C409.201 54.8921 409.478 56.2147 409.478 57.7507V78.1667H417.862V57.7507C417.862 56.2147 418.139 54.8921 418.694 53.7827C419.249 52.6734 420.038 51.8201 421.062 51.2227C422.086 50.5827 423.259 50.2627 424.582 50.2627C425.99 50.2627 427.185 50.5827 428.166 51.2227C429.147 51.8201 429.915 52.6734 430.47 53.7827C431.025 54.8921 431.302 56.2147 431.302 57.7507V78.1667H439.686V55.7667C439.686 53.1641 439.131 50.8814 438.022 48.9187C436.913 46.9134 435.377 45.3561 433.414 44.2467C431.494 43.1374 429.297 42.5827 426.822 42.5827C424.049 42.5827 421.595 43.2867 419.462 44.6947C418.089 45.5735 416.937 46.744 416.005 48.2062C415.244 46.8919 414.178 45.764 412.806 44.8227C410.63 43.3294 408.113 42.5827 405.254 42.5827C402.651 42.5827 400.39 43.2014 398.47 44.4387C397.215 45.2472 396.234 46.329 395.526 47.6841V43.3507H387.654ZM463.291 78.9347C459.707 78.9347 456.571 78.1241 453.883 76.5027C451.195 74.8814 449.104 72.6841 447.611 69.9107C446.118 67.1374 445.371 64.0654 445.371 60.6947C445.371 57.1961 446.118 54.1027 447.611 51.4147C449.147 48.6841 451.216 46.5294 453.819 44.9507C456.464 43.3721 459.408 42.5827 462.651 42.5827C465.382 42.5827 467.771 43.0307 469.819 43.9267C471.91 44.8227 473.68 46.0601 475.131 47.6387C476.582 49.2174 477.691 51.0307 478.459 53.0787C479.227 55.0841 479.611 57.2601 479.611 59.6067C479.611 60.2041 479.568 60.8227 479.483 61.4627C479.44 62.1027 479.334 62.6574 479.163 63.1267H454.078C454.186 64.3244 454.462 65.4337 454.907 66.4547C455.675 68.0761 456.784 69.3347 458.235 70.2307C459.728 71.1267 461.435 71.5747 463.355 71.5747C465.275 71.5747 466.896 71.1694 468.219 70.3587C469.584 69.5481 470.651 68.4601 471.419 67.0947L478.203 70.4227C477.52 72.0867 476.454 73.5587 475.003 74.8387C473.552 76.1187 471.824 77.1214 469.819 77.8467C467.856 78.5721 465.68 78.9347 463.291 78.9347ZM454.843 54.6787C454.584 55.3093 454.387 55.992 454.251 56.7267H470.651C470.583 55.9355 470.412 55.1888 470.139 54.4867C469.584 52.9507 468.646 51.7347 467.323 50.8387C466.043 49.9427 464.486 49.4947 462.651 49.4947C460.902 49.4947 459.344 49.9427 457.979 50.8387C456.614 51.6921 455.568 52.9721 454.843 54.6787ZM499.215 78.9347C495.503 78.9347 492.26 78.0601 489.486 76.3107C486.756 74.5187 484.878 72.1081 483.855 69.0787L490.127 66.0707C491.023 68.0334 492.26 69.5694 493.839 70.6787C495.46 71.7881 497.252 72.3427 499.215 72.3427C500.751 72.3427 501.967 72.0014 502.863 71.3187C503.759 70.6361 504.207 69.7401 504.207 68.6307C504.207 67.9481 504.015 67.3934 503.631 66.9667C503.289 66.4974 502.799 66.1134 502.158 65.8147C501.561 65.4734 500.9 65.1961 500.175 64.9827L494.479 63.3827C491.535 62.5294 489.295 61.2281 487.759 59.4787C486.265 57.7294 485.519 55.6601 485.519 53.2707C485.519 51.1374 486.052 49.2814 487.119 47.7027C488.228 46.0814 489.743 44.8227 491.663 43.9267C493.625 43.0307 495.865 42.5827 498.382 42.5827C501.668 42.5827 504.569 43.3721 507.087 44.9507C509.604 46.5294 511.396 48.7481 512.463 51.6067L506.063 54.6147C505.465 53.0361 504.463 51.7774 503.054 50.8387C501.647 49.9001 500.068 49.4307 498.319 49.4307C496.911 49.4307 495.801 49.7507 494.991 50.3907C494.18 51.0307 493.775 51.8627 493.775 52.8867C493.775 53.5267 493.945 54.0814 494.287 54.5507C494.628 55.0201 495.097 55.4041 495.695 55.7027C496.335 56.0014 497.06 56.2787 497.871 56.5347L503.439 58.1987C506.297 59.0521 508.495 60.3321 510.031 62.0387C511.609 63.7454 512.399 65.8361 512.399 68.3107C512.399 70.4014 511.844 72.2574 510.735 73.8787C509.625 75.4574 508.089 76.6947 506.127 77.5907C504.164 78.4867 501.86 78.9347 499.215 78.9347ZM301.529 78.1667V43.3507H309.401V48.2511C310.183 46.5374 311.228 45.288 312.537 44.5027C314.286 43.4787 316.377 42.9667 318.809 42.9667H320.857V50.3907H317.849C315.46 50.3907 313.54 51.1373 312.089 52.6307C310.638 54.0813 309.913 56.1293 309.913 58.7747V78.1667H301.529ZM269.445 76.5027C272.134 78.1241 275.27 78.9347 278.854 78.9347C281.243 78.9347 283.419 78.5721 285.382 77.8467C287.387 77.1214 289.115 76.1187 290.566 74.8387C292.016 73.5587 293.083 72.0867 293.766 70.4227L286.981 67.0947C286.214 68.4601 285.147 69.5481 283.782 70.3587C282.459 71.1694 280.837 71.5747 278.917 71.5747C276.998 71.5747 275.291 71.1267 273.798 70.2307C272.347 69.3347 271.238 68.0761 270.47 66.4547C270.024 65.4337 269.748 64.3244 269.64 63.1267H294.726C294.896 62.6574 295.003 62.1027 295.045 61.4627C295.131 60.8227 295.174 60.2041 295.174 59.6067C295.174 57.2601 294.79 55.0841 294.022 53.0787C293.254 51.0307 292.144 49.2174 290.694 47.6387C289.243 46.0601 287.472 44.8227 285.382 43.9267C283.334 43.0307 280.944 42.5827 278.214 42.5827C274.971 42.5827 272.027 43.3721 269.382 44.9507C266.779 46.5294 264.71 48.6841 263.174 51.4147C261.68 54.1027 260.934 57.1961 260.934 60.6947C260.934 64.0654 261.68 67.1374 263.174 69.9107C264.667 72.6841 266.757 74.8814 269.445 76.5027ZM286.213 56.7267H269.813C269.949 55.992 270.147 55.3093 270.406 54.6787C271.131 52.9721 272.176 51.6921 273.542 50.8387C274.907 49.9427 276.464 49.4947 278.214 49.4947C280.048 49.4947 281.606 49.9427 282.886 50.8387C284.208 51.7347 285.147 52.9507 285.701 54.4867C285.975 55.1888 286.145 55.9355 286.213 56.7267ZM229.69 92.3106C228.752 92.3106 227.834 92.2253 226.938 92.0546C226.042 91.9266 225.232 91.692 224.506 91.3506V84.3106C225.061 84.4386 225.722 84.5666 226.49 84.6946C227.301 84.8226 228.048 84.8866 228.73 84.8866C230.65 84.8866 232.037 84.4386 232.89 83.5426C233.786 82.6466 234.576 81.4733 235.258 80.0226L236.048 78.1814L222.266 43.3506H231.29L240.31 67.3655L249.274 43.3506H258.363L243.194 81.6866C242.298 83.948 241.21 85.868 239.93 87.4466C238.65 89.0253 237.157 90.22 235.45 91.0306C233.786 91.884 231.866 92.3106 229.69 92.3106ZM192.566 77.7187C194.358 78.5294 196.47 78.9347 198.902 78.9347C200.822 78.9347 202.571 78.6787 204.15 78.1667C205.728 77.6121 207.136 76.8441 208.374 75.8627C208.87 75.4515 209.34 75.0025 209.782 74.5156V78.1667H217.718V54.9987C217.718 52.5241 217.099 50.3694 215.862 48.5347C214.667 46.6574 212.982 45.2067 210.806 44.1827C208.63 43.1161 206.112 42.5827 203.254 42.5827C200.907 42.5827 198.731 42.9667 196.726 43.7347C194.72 44.5027 192.971 45.5694 191.478 46.9347C190.027 48.2574 188.96 49.8361 188.278 51.6707L195.126 54.9987C195.766 53.4201 196.768 52.1614 198.134 51.2227C199.542 50.2414 201.142 49.7507 202.934 49.7507C204.854 49.7507 206.39 50.2627 207.542 51.2867C208.736 52.2681 209.334 53.5054 209.334 54.9987V56.1256L198.966 57.8147C196.235 58.2414 193.974 58.9667 192.182 59.9907C190.39 61.0147 189.067 62.2947 188.214 63.8307C187.36 65.3241 186.934 67.0307 186.934 68.9507C186.934 70.9561 187.424 72.7267 188.406 74.2627C189.387 75.7561 190.774 76.9081 192.566 77.7187ZM200.566 64.0227L209.334 62.5327V63.9587C209.334 65.5374 208.95 66.9881 208.182 68.3107C207.456 69.6334 206.411 70.6787 205.046 71.4467C203.723 72.1721 202.187 72.5347 200.438 72.5347C199.072 72.5347 197.92 72.1934 196.982 71.5107C196.086 70.7854 195.638 69.8254 195.638 68.6307C195.638 67.3934 196.043 66.3907 196.854 65.6227C197.664 64.8547 198.902 64.3214 200.566 64.0227ZM164.404 78.1667V43.3507H172.276V48.2511C173.058 46.5374 174.103 45.288 175.412 44.5027C177.161 43.4787 179.252 42.9667 181.684 42.9667H183.732V50.3907H180.724C178.335 50.3907 176.415 51.1373 174.964 52.6307C173.513 54.0813 172.788 56.1293 172.788 58.7747V78.1667H164.404Z" fill="white"/>
</g>
<defs>
<clipPath id="clip0_23_3">
<rect width="103" height="103" fill="white"/>
</clipPath>
<clipPath id="clip1_23_3">
<rect width="396" height="80" fill="white" transform="translate(119 11.5)"/>
</clipPath>
</defs>
</svg>
